<svg id="Слой_1" data-name="Слой 1" xmlns="http://www.w3.org/2000/svg" viewBox="0 0 331.66 52.07"><defs><style>.cls-1{stroke:#000;stroke-miterlimit:10;}</style></defs><title>logo_black</title><path d="M29.52,11.15l-1.32-3H22l-1.31,3H19.51L24.54,0h1.15l5,11.15Zm-7.08-4h5.33l-2.68-6Z"/><path d="M40.63,0h1.08V11.15H40.55L33.65,1.71v9.44h-1.1V0h1.16l6.92,9.44Z"/><path d="M52.64.73a5.48,5.48,0,0,1,2.83,4.85,5.44,5.44,0,0,1-2.84,4.83,6,6,0,0,1-2.94.73H45.24V0h4.48A5.88,5.88,0,0,1,52.64.73Zm-.57,8.82a4.52,4.52,0,0,0,2.28-4A4.54,4.54,0,0,0,52,1.6,4.62,4.62,0,0,0,49.71,1H46.34v9.17h3.41A4.55,4.55,0,0,0,52.07,9.55Z"/><path d="M65.25,11.15,62.84,7.51l-.78,0H59v3.6h-1.1V0h4.16a4.86,4.86,0,0,1,3.23,1A3.39,3.39,0,0,1,66.43,3.7,3.84,3.84,0,0,1,65.76,6a3.5,3.5,0,0,1-1.91,1.29l2.68,3.84ZM62.06,6.56a3.71,3.71,0,0,0,2.46-.73,2.59,2.59,0,0,0,.86-2.1,2.48,2.48,0,0,0-.86-2A3.8,3.8,0,0,0,62.06,1H59V6.56Z"/><path d="M69.43,0h7.47V1H70.53V5h5.69V6H70.53v4.2H77.1v1H69.43Z"/><path d="M87.87,0,83.57,7.18v4h-1.1v-4L78.12,0h1.15L83,6l3.68-6Z"/><path d="M20.2,46.68H17.14L7.6,34.44,2.48,40v6.7H0V21.48H2.48V36.81l14-15.34h3l-10.12,11Z"/><path d="M41.38,23a13,13,0,0,1,4.77,4.63A12.15,12.15,0,0,1,47.92,34a12.33,12.33,0,0,1-1.76,6.44,13.36,13.36,0,0,1-18,4.68,13,13,0,0,1-4.77-4.68A12.33,12.33,0,0,1,21.64,34a12.14,12.14,0,0,1,1.76-6.41A13,13,0,0,1,28.17,23a13.62,13.62,0,0,1,13.21,0Zm-11.9,1.93a10.59,10.59,0,0,0-3.89,3.82A10.13,10.13,0,0,0,24.16,34a10.32,10.32,0,0,0,1.44,5.33,10.63,10.63,0,0,0,3.89,3.87,10.42,10.42,0,0,0,5.33,1.42,10.26,10.26,0,0,0,5.27-1.42A10.68,10.68,0,0,0,44,39.37,10.33,10.33,0,0,0,45.4,34,10.14,10.14,0,0,0,44,28.75a10.64,10.64,0,0,0-3.87-3.82,10.36,10.36,0,0,0-5.27-1.4A10.52,10.52,0,0,0,29.48,24.93Z"/><path d="M53.39,21.51h2.48V44.44H67v2.23H53.39Z"/><rect x="71.94" y="32.61" width="16.23" height="2.5"/><rect x="71.94" y="21.51" width="16.23" height="2.23"/><rect x="71.94" y="44.44" width="16.23" height="2.23"/><path d="M105.84,24.12a12.68,12.68,0,0,0-3.46-.52,7.48,7.48,0,0,0-4.16,1,3.18,3.18,0,0,0-1.57,2.79,3.65,3.65,0,0,0,.86,2.52,6.1,6.1,0,0,0,2.12,1.53,33.38,33.38,0,0,0,3.46,1.24,29.74,29.74,0,0,1,4.12,1.49,7.3,7.3,0,0,1,2.66,2.14,6.48,6.48,0,0,1,0,7.27A7.26,7.26,0,0,1,106.67,46a12.29,12.29,0,0,1-4.72.85,13.2,13.2,0,0,1-5.13-1A13.8,13.8,0,0,1,92.52,43L93.67,41a12.41,12.41,0,0,0,3.92,2.59,11.29,11.29,0,0,0,4.39.94,7.91,7.91,0,0,0,4.57-1.17,3.65,3.65,0,0,0,1.69-3.15,3.84,3.84,0,0,0-.86-2.59,5.73,5.73,0,0,0-2.12-1.55q-1.26-.54-3.53-1.26a36.11,36.11,0,0,1-4.1-1.49A6.91,6.91,0,0,1,95,31.21a5.72,5.72,0,0,1-1.08-3.62A5.43,5.43,0,0,1,95,24.25,6.83,6.83,0,0,1,98,22a12.11,12.11,0,0,1,4.5-.77,15.16,15.16,0,0,1,7.78,2.23l-1.08,2.12A13,13,0,0,0,105.84,24.12Z"/><path d="M135.39,21.51h2.45V46.68h-2.63L119.63,25.36V46.68h-2.48V21.51h2.63l15.62,21.31Z"/><path d="M145.8,21.51h2.48V46.68H145.8Z"/><path d="M171,24.32a10.6,10.6,0,0,0-13.3,4.41,10.59,10.59,0,0,0,0,10.6,10.63,10.63,0,0,0,3.85,3.83,10.39,10.39,0,0,0,5.35,1.42,10.65,10.65,0,0,0,4.07-.81,11.57,11.57,0,0,0,3.53-2.25L176,43.15a14.51,14.51,0,0,1-4.28,2.74,12.68,12.68,0,0,1-4.93,1,13,13,0,0,1-11.29-6.41A12.43,12.43,0,0,1,153.75,34a12.14,12.14,0,0,1,1.76-6.41,13.18,13.18,0,0,1,11.34-6.34A13.42,13.42,0,0,1,176,24.9l-1.48,1.73A11.07,11.07,0,0,0,171,24.32Z"/><path d="M181.44,21.51h2.48V33h15.73V21.51h2.48V46.68h-2.48V35.26H183.92V46.68h-2.48Z"/><path d="M251.71,21.51h2.45V46.68h-2.63L235.94,25.36V46.68h-2.48V21.51h2.63l15.62,21.31Z"/><path d="M282.31,46.68h-3.06l-9.54-12.24L264.6,40v6.7h-2.48V21.48h2.48V36.81l14-15.34h3l-10.12,11Z"/><path d="M303.49,23a13,13,0,0,1,4.77,4.63A12.15,12.15,0,0,1,310,34a12.33,12.33,0,0,1-1.76,6.44,13.27,13.27,0,0,1-22.75,0A12.33,12.33,0,0,1,283.75,34a12.14,12.14,0,0,1,1.76-6.41A13,13,0,0,1,290.28,23a13.62,13.62,0,0,1,13.21,0Zm-11.9,1.93a10.59,10.59,0,0,0-3.89,3.82A10.14,10.14,0,0,0,286.27,34a10.32,10.32,0,0,0,1.44,5.33,10.63,10.63,0,0,0,3.89,3.87,10.42,10.42,0,0,0,5.33,1.42,10.26,10.26,0,0,0,5.27-1.42,10.68,10.68,0,0,0,3.87-3.87A10.32,10.32,0,0,0,307.51,34a10.14,10.14,0,0,0-1.44-5.29,10.63,10.63,0,0,0-3.87-3.82,10.36,10.36,0,0,0-5.27-1.4A10.52,10.52,0,0,0,291.6,24.93Z"/><line class="cls-1" x1="0.02" y1="5.51" x2="16.94" y2="5.51"/><line class="cls-1" x1="91.02" y1="5.51" x2="107.94" y2="5.51"/><rect x="210.6" y="32.57" width="16.23" height="2.5"/><rect x="210.6" y="21.48" width="16.23" height="2.23"/><rect x="210.6" y="44.41" width="16.23" height="2.23"/><path d="M314.27,45.63a.79.79,0,0,1,.22.57.82.82,0,0,1-.22.58.71.71,0,0,1-.54.23.73.73,0,0,1-.55-.23.8.8,0,0,1-.22-.58.78.78,0,0,1,.22-.57.74.74,0,0,1,.55-.22A.72.72,0,0,1,314.27,45.63Z"/><path d="M322.41,39.92a3.27,3.27,0,0,1,1.26,1.33,4.49,4.49,0,0,1,0,3.9,3.2,3.2,0,0,1-1.25,1.32,3.59,3.59,0,0,1-1.84.47,3.38,3.38,0,0,1-1.65-.39,2.81,2.81,0,0,1-1.12-1.12v1.47h-1.3V36.5h1.3V41a2.82,2.82,0,0,1,1.11-1.12,3.31,3.31,0,0,1,1.63-.39A3.59,3.59,0,0,1,322.41,39.92Zm-.82,5.54a2.31,2.31,0,0,0,.88-.94,2.88,2.88,0,0,0,.32-1.36,2.8,2.8,0,0,0-.32-1.34,2.38,2.38,0,0,0-.88-.94,2.43,2.43,0,0,0-1.27-.34,2.46,2.46,0,0,0-1.28.34,2.35,2.35,0,0,0-.89.94,3,3,0,0,0,0,2.71,2.37,2.37,0,0,0,.89.93,2.61,2.61,0,0,0,2.56,0Z"/><path d="M327.34,49.23a2.22,2.22,0,0,1-1.36.43,2.44,2.44,0,0,1-1.62-.57l.56-1a1.7,1.7,0,0,0,1,.35,1.35,1.35,0,0,0,1.26-1l.28-.66-3.07-7.32h1.37l2.35,5.94,2.23-5.94h1.33l-3.39,8.46A3,3,0,0,1,327.34,49.23Z"/></svg>